Coordinates
version=1
nRows=14
nColumns=40
inDegrees=yes

Units are S.I. units (second, meters, Newtons, ...)
Angles are in degrees.

endheader
time	pelvis_tilt	pelvis_list	pelvis_rotation	pelvis_tx	pelvis_ty	pelvis_tz	hip_flexion_r	hip_adduction_r	hip_rotation_r	knee_angle_r	knee_angle_r_beta	ankle_angle_r	subtalar_angle_r	mtp_angle_r	hip_flexion_l	hip_adduction_l	hip_rotation_l	knee_angle_l	knee_angle_l_beta	ankle_angle_l	subtalar_angle_l	mtp_angle_l	lumbar_extension	lumbar_bending	lumbar_rotation	arm_flex_r	arm_add_r	arm_rot_r	elbow_flex_r	pro_sup_r	wrist_flex_r	wrist_dev_r	arm_flex_l	arm_add_l	arm_rot_l	elbow_flex_l	pro_sup_l	wrist_flex_l	wrist_dev_l
     32.57000000	     -2.42992794	     -2.79777736	     -0.59038950	      0.96380037	      0.92537382	      0.46805988	     17.74926492	     -8.37373801	     -9.58869718	     61.11862210	     61.11862210	      7.32029427	    -19.12682254	     12.00077390	     17.10782725	     -1.03930211	     -2.87846182	     27.05295869	     27.05295869	     15.02724555	    -15.03788155	      3.57075861	     -9.57662472	      4.83589081	      2.10456306	     28.21740106	    -14.61057520	     -6.94231639	     47.03016270	     44.17409353	      0.00000000	      0.00000000	     13.12151293	    -14.08988260	     11.36638992	     44.49490686	     44.42536236	      0.00000000	      0.00000000
     32.58950000	     -2.05536366	     -2.80911653	     -1.09388563	      0.96381938	      0.92368707	      0.46609506	     19.13509050	     -8.11978966	     -8.42516260	     62.69161018	     62.69161018	      8.21192996	    -19.15952022	     13.61578374	     16.87354884	     -0.91262221	     -2.92602223	     28.30120866	     28.30120866	     16.14595164	    -15.68105106	      4.34930444	     -9.90688295	      5.14901833	      2.07380715	     24.97590503	    -14.20210057	     -7.18971224	     43.55849141	     44.39986312	      0.00000000	      0.00000000	     14.84649779	    -14.20337007	     10.87579412	     45.26336891	     44.62758620	      0.00000000	      0.00000000
     32.60900000	     -1.68349579	     -2.79367766	     -1.60933263	      0.96375728	      0.92186702	      0.46411639	     20.48158652	     -7.93205603	     -7.40314756	     63.99057655	     63.99057655	      8.63635167	    -19.19346123	     13.48811793	     16.56564415	     -0.70158338	     -2.85966361	     29.39701147	     29.39701147	     16.89164180	    -16.60068980	      4.29252082	    -10.33911443	      5.46524299	      2.15415789	     21.34793188	    -14.07771259	     -7.09567992	     41.37089617	     44.47345558	      0.00000000	      0.00000000	     16.60016792	    -14.36893398	     10.39278557	     46.40426089	     44.72229982	      0.00000000	      0.00000000
     32.62850000	     -1.24325104	     -2.83975045	     -2.10219759	      0.96374129	      0.92039650	      0.46236357	     21.64483915	     -7.63387186	     -6.51595930	     64.89072720	     64.89072720	      9.08490613	    -19.25224472	     13.48117515	     16.05755317	     -0.57969759	     -2.89904839	     30.26998491	     30.26998491	     17.65688850	    -17.29985691	      4.34674973	    -10.85399670	      5.87896024	      1.98541026	     17.85461753	    -13.74304068	     -7.01938891	     39.22017375	     44.54196931	      0.00000000	      0.00000000	     18.30224627	    -14.73522536	      9.90865267	     47.35958228	     44.80703521	      0.00000000	      0.00000000
     32.64800000	     -0.99514589	     -2.90335807	     -2.64100963	      0.96336922	      0.91897722	      0.46099339	     23.07932289	     -7.17085027	     -5.56669274	     65.54431437	     65.54431437	     10.19960655	    -19.26260346	     15.84202022	     15.88065987	     -0.47837663	     -2.87165703	     31.40809415	     31.40809415	     19.52158187	    -17.56631875	      7.43205059	    -11.17157215	      6.21899772	      2.23701602	     15.58492611	    -13.28769594	     -8.27485368	     32.96100419	     44.95548965	      0.00000000	      0.00000000	     20.17870596	    -14.62956367	      8.64322469	     48.52232903	     45.08649960	      0.00000000	      0.00000000
     32.66750000	     -0.76900355	     -3.00344375	     -3.16073794	      0.96298957	      0.91784015	      0.45999585	     24.31829937	     -6.76129235	     -4.96756138	     65.54967240	     65.54967240	     10.65111496	    -19.29592389	     15.80098455	     15.47716896	     -0.50384504	     -3.08097628	     31.99994783	     31.99994783	     20.19322088	    -17.88895915	      7.49917602	    -11.56432839	      6.60818192	      2.43754170	     12.18548580	    -13.12860313	     -8.50777680	     30.76494093	     45.05819866	      0.00000000	      0.00000000	     21.94805429	    -14.85746159	      8.02369803	     49.93983643	     45.20036928	      0.00000000	      0.00000000
     32.68700000	     -0.60957610	     -3.11325619	     -3.68239729	      0.96247554	      0.91718274	      0.45941346	     25.49071318	     -6.31120707	     -4.51255675	     64.99192653	     64.99192653	     11.15379947	    -19.31810654	     15.89603382	     15.01085520	     -0.56751992	     -3.33899503	     32.32157845	     32.32157845	     20.81131439	    -18.08309826	      7.76777656	    -11.90002004	      7.00940335	      2.54221112	      9.04251981	    -12.87975955	     -8.78585418	     28.55839199	     45.16728573	      0.00000000	      0.00000000	     23.67471391	    -15.20210126	      7.39151120	     51.28826585	     45.30956147	      0.00000000	      0.00000000
     32.70650000	     -0.54135063	     -3.23879235	     -4.21613373	      0.96184390	      0.91705109	      0.45928042	     26.59291969	     -5.81207027	     -4.20598216	     63.82390348	     63.82390348	     11.62598426	    -19.30910094	     15.98484801	     14.48503257	     -0.68509440	     -3.64447534	     32.32747423	     32.32747423	     21.33798302	    -18.17867594	      8.13655457	    -12.15965152	      7.37062642	      2.49889112	      6.14717438	    -12.56326884	     -9.16118529	     26.49099210	     45.28462998	      0.00000000	      0.00000000	     25.29238604	    -15.68033801	      6.70912298	     52.66658757	     45.42170203	      0.00000000	      0.00000000
     32.72600000	     -0.57011605	     -3.36381426	     -4.76700092	      0.96108436	      0.91745771	      0.45964220	     27.61561670	     -5.25730352	     -4.00397062	     62.03679416	     62.03679416	     11.95888305	    -19.28120143	     15.83936016	     13.90756001	     -0.84149600	     -4.01176167	     32.01824723	     32.01824723	     21.70197908	    -18.19736508	      8.47411877	    -12.33985434	      7.69202655	      2.41463470	      3.43925629	    -12.24802524	     -9.64987006	     24.67447552	     45.41078058	      0.00000000	      0.00000000	     26.78649098	    -16.22827277	      5.94555990	     54.24106641	     45.54242500	      0.00000000	      0.00000000
     32.74550000	     -0.70626076	     -3.50905529	     -5.34178293	      0.96029279	      0.91839299	      0.46045189	     28.50848714	     -4.64469737	     -3.92500110	     59.59903888	     59.59903888	     12.01637743	    -19.19580374	     15.29151376	     13.25897753	     -1.05842526	     -4.45247406	     31.35602334	     31.35602334	     21.86282922	    -18.13435735	      8.68101191	    -12.43159568	      8.01385101	      2.23691081	      0.84599796	    -11.92824092	    -10.24226399	     23.24449606	     45.53741854	      0.00000000	      0.00000000	     28.11304849	    -16.93913372	      5.08543777	     55.97595194	     45.67306362	      0.00000000	      0.00000000
     32.76500000	     -0.92838165	     -3.66592782	     -5.94390475	      0.95947063	      0.91975332	      0.46165127	     29.14850848	     -4.00824500	     -3.97948945	     56.39390095	     56.39390095	     11.20941864	    -19.07063834	     12.27019769	     12.54701391	     -1.32202357	     -4.96293659	     30.39120483	     30.39120483	     21.69735248	    -18.04930704	      8.33994161	    -12.48162986	      8.31344051	      1.67866678	     -1.39135495	    -11.52300143	    -12.03370087	     22.36755721	     45.82829951	      0.00000000	      0.00000000	     28.74172427	    -17.94461785	      3.45887904	     58.86280210	     45.93110912	      0.00000000	      0.00000000
     32.78450000	     -1.16192988	     -3.82333554	     -6.58291357	      0.95868245	      0.92152548	      0.46335122	     29.61820647	     -3.20845693	     -3.86416129	     52.81582775	     52.81582775	     10.96516826	    -18.72239128	     11.65467870	     11.68260199	     -1.59939453	     -5.53318665	     29.14304015	     29.14304015	     21.55413455	    -17.87068540	      8.37632979	    -12.49701205	      8.54784183	      1.64998931	     -3.81459558	    -11.37701344	    -12.32864139	     21.57214184	     45.89211377	      0.00000000	      0.00000000	     30.20860965	    -18.63729967	      2.85051265	     60.17192438	     46.02581781	      0.00000000	      0.00000000
     32.80400000	     -1.48828334	     -3.96532014	     -7.22565571	      0.95800696	      0.92325919	      0.46529266	     29.72710733	     -2.55672208	     -4.05059434	     48.41401355	     48.41401355	      8.99276692	    -18.19078439	      5.88341939	     10.81228998	     -1.89825315	     -6.23810534	     27.68105230	     27.68105230	     20.81384008	    -17.71084785	      6.98189081	    -12.47753173	      8.76483377	      1.41777769	     -6.43315415	    -11.19833260	    -13.57634389	     22.41080587	     46.03619814	      0.00000000	      0.00000000	     30.90631662	    -19.48227038	      1.48152715	     63.05799497	     46.25799753	      0.00000000	      0.00000000
     32.82350000	     -1.80958440	     -4.03311264	     -7.88217368	      0.95747218	      0.92496078	      0.46756928	     29.65222649	     -1.90629431	     -4.09302727	     43.82352703	     43.82352703	      7.56009529	    -17.08238074	      2.23310261	      9.86641739	     -2.09509821	     -6.93369646	     26.11396524	     26.11396524	     20.27998553	    -17.47471089	      6.23973051	    -12.39394941	      8.85329431	      1.44216079	     -8.75838221	    -11.05600245	    -14.11491396	     22.60272955	     46.12525627	      0.00000000	      0.00000000	     32.12569833	    -20.10246582	      0.59938554	     64.85223600	     46.43234145	      0.00000000	      0.00000000
